<mxfile host="app.diagrams.net" agent="Mozilla/5.0 (Windows NT 10.0; Win64; x64) AppleWebKit/537.36 (KHTML, like Gecko) Chrome/130.0.0.0 Safari/537.36" version="24.8.0">
  <diagram name="Page-1" id="w1xVRJd-9sXZaie4cN5L">
    <mxGraphModel dx="1502" dy="192" grid="0" gridSize="10" guides="0" tooltips="0" connect="1" arrows="1" fold="1" page="0" pageScale="1" pageWidth="850" pageHeight="1100" math="0" shadow="0">
      <root>
        <mxCell id="0" />
        <mxCell id="1" parent="0" />
        <mxCell id="ZdumHRwsYj28944mz9WU-9" style="edgeStyle=orthogonalEdgeStyle;rounded=0;orthogonalLoop=1;jettySize=auto;html=1;entryX=0;entryY=0.25;entryDx=0;entryDy=0;exitX=1;exitY=0.5;exitDx=0;exitDy=0;" edge="1" parent="1" source="ZdumHRwsYj28944mz9WU-10" target="ZdumHRwsYj28944mz9WU-13">
          <mxGeometry relative="1" as="geometry" />
        </mxCell>
        <mxCell id="ZdumHRwsYj28944mz9WU-54" style="edgeStyle=orthogonalEdgeStyle;rounded=0;orthogonalLoop=1;jettySize=auto;html=1;exitX=1;exitY=0.25;exitDx=0;exitDy=0;entryX=0;entryY=0.25;entryDx=0;entryDy=0;" edge="1" parent="1" source="ZdumHRwsYj28944mz9WU-10" target="ZdumHRwsYj28944mz9WU-20">
          <mxGeometry relative="1" as="geometry">
            <Array as="points">
              <mxPoint x="780" y="695" />
              <mxPoint x="780" y="735" />
            </Array>
          </mxGeometry>
        </mxCell>
        <mxCell id="ZdumHRwsYj28944mz9WU-10" value="Masked Sequence" style="rounded=0;whiteSpace=wrap;html=1;" vertex="1" parent="1">
          <mxGeometry x="320" y="680" width="120" height="60" as="geometry" />
        </mxCell>
        <mxCell id="ZdumHRwsYj28944mz9WU-11" style="edgeStyle=orthogonalEdgeStyle;rounded=0;orthogonalLoop=1;jettySize=auto;html=1;entryX=0;entryY=0.75;entryDx=0;entryDy=0;" edge="1" parent="1" source="ZdumHRwsYj28944mz9WU-12" target="ZdumHRwsYj28944mz9WU-13">
          <mxGeometry relative="1" as="geometry" />
        </mxCell>
        <mxCell id="ZdumHRwsYj28944mz9WU-12" value="Real Expression" style="rounded=0;whiteSpace=wrap;html=1;" vertex="1" parent="1">
          <mxGeometry x="320" y="760" width="120" height="60" as="geometry" />
        </mxCell>
        <mxCell id="ZdumHRwsYj28944mz9WU-50" style="edgeStyle=orthogonalEdgeStyle;rounded=0;orthogonalLoop=1;jettySize=auto;html=1;entryX=0;entryY=0.5;entryDx=0;entryDy=0;" edge="1" parent="1" source="ZdumHRwsYj28944mz9WU-13" target="ZdumHRwsYj28944mz9WU-48">
          <mxGeometry relative="1" as="geometry" />
        </mxCell>
        <mxCell id="ZdumHRwsYj28944mz9WU-13" value="Generator" style="rounded=0;whiteSpace=wrap;html=1;fillColor=#dae8fc;strokeColor=#6c8ebf;" vertex="1" parent="1">
          <mxGeometry x="480" y="720" width="120" height="60" as="geometry" />
        </mxCell>
        <mxCell id="ZdumHRwsYj28944mz9WU-14" value="" style="edgeStyle=orthogonalEdgeStyle;rounded=0;orthogonalLoop=1;jettySize=auto;html=1;entryX=0;entryY=0.75;entryDx=0;entryDy=0;exitX=1;exitY=0.75;exitDx=0;exitDy=0;" edge="1" parent="1" source="ZdumHRwsYj28944mz9WU-48" target="ZdumHRwsYj28944mz9WU-20">
          <mxGeometry relative="1" as="geometry">
            <mxPoint x="790" y="750" as="sourcePoint" />
            <mxPoint x="800" y="750" as="targetPoint" />
          </mxGeometry>
        </mxCell>
        <mxCell id="ZdumHRwsYj28944mz9WU-18" style="edgeStyle=orthogonalEdgeStyle;rounded=0;orthogonalLoop=1;jettySize=auto;html=1;entryX=0;entryY=0.75;entryDx=0;entryDy=0;exitX=1;exitY=0.75;exitDx=0;exitDy=0;" edge="1" parent="1" source="ZdumHRwsYj28944mz9WU-20" target="ZdumHRwsYj28944mz9WU-22">
          <mxGeometry relative="1" as="geometry" />
        </mxCell>
        <mxCell id="ZdumHRwsYj28944mz9WU-47" style="rounded=0;orthogonalLoop=1;jettySize=auto;html=1;entryX=0;entryY=0.75;entryDx=0;entryDy=0;exitX=1;exitY=0.25;exitDx=0;exitDy=0;" edge="1" parent="1" source="ZdumHRwsYj28944mz9WU-20" target="ZdumHRwsYj28944mz9WU-27">
          <mxGeometry relative="1" as="geometry" />
        </mxCell>
        <mxCell id="ZdumHRwsYj28944mz9WU-20" value="Fake Full&lt;div&gt;Sequence&lt;/div&gt;" style="rounded=0;whiteSpace=wrap;html=1;" vertex="1" parent="1">
          <mxGeometry x="800" y="720" width="120" height="60" as="geometry" />
        </mxCell>
        <mxCell id="ZdumHRwsYj28944mz9WU-21" style="edgeStyle=orthogonalEdgeStyle;rounded=0;orthogonalLoop=1;jettySize=auto;html=1;entryX=0;entryY=0.5;entryDx=0;entryDy=0;exitX=1;exitY=0.25;exitDx=0;exitDy=0;" edge="1" parent="1" source="ZdumHRwsYj28944mz9WU-22" target="ZdumHRwsYj28944mz9WU-24">
          <mxGeometry relative="1" as="geometry" />
        </mxCell>
        <mxCell id="ZdumHRwsYj28944mz9WU-22" value="Discriminator" style="rounded=0;whiteSpace=wrap;html=1;fillColor=#f8cecc;strokeColor=#b85450;" vertex="1" parent="1">
          <mxGeometry x="1040" y="720" width="120" height="60" as="geometry" />
        </mxCell>
        <mxCell id="ZdumHRwsYj28944mz9WU-52" style="edgeStyle=orthogonalEdgeStyle;rounded=0;orthogonalLoop=1;jettySize=auto;html=1;exitX=1;exitY=0.5;exitDx=0;exitDy=0;entryX=0;entryY=0.75;entryDx=0;entryDy=0;" edge="1" parent="1" source="ZdumHRwsYj28944mz9WU-24" target="ZdumHRwsYj28944mz9WU-30">
          <mxGeometry relative="1" as="geometry">
            <Array as="points">
              <mxPoint x="1500" y="710" />
              <mxPoint x="1500" y="665" />
            </Array>
          </mxGeometry>
        </mxCell>
        <mxCell id="ZdumHRwsYj28944mz9WU-24" value="Generator&lt;br&gt;&lt;div&gt;&lt;span style=&quot;background-color: initial;&quot;&gt;Adversarial&lt;/span&gt;&lt;/div&gt;&lt;div&gt;Loss&lt;/div&gt;" style="rounded=0;whiteSpace=wrap;html=1;" vertex="1" parent="1">
          <mxGeometry x="1200" y="680" width="120" height="60" as="geometry" />
        </mxCell>
        <mxCell id="ZdumHRwsYj28944mz9WU-25" style="edgeStyle=orthogonalEdgeStyle;rounded=0;orthogonalLoop=1;jettySize=auto;html=1;exitX=1;exitY=0.75;exitDx=0;exitDy=0;entryX=0;entryY=0.25;entryDx=0;entryDy=0;" edge="1" parent="1" source="ZdumHRwsYj28944mz9WU-27" target="ZdumHRwsYj28944mz9WU-34">
          <mxGeometry relative="1" as="geometry" />
        </mxCell>
        <mxCell id="ZdumHRwsYj28944mz9WU-26" style="edgeStyle=orthogonalEdgeStyle;rounded=0;orthogonalLoop=1;jettySize=auto;html=1;exitX=1;exitY=0.25;exitDx=0;exitDy=0;entryX=0;entryY=0.75;entryDx=0;entryDy=0;" edge="1" parent="1" source="ZdumHRwsYj28944mz9WU-27" target="ZdumHRwsYj28944mz9WU-36">
          <mxGeometry relative="1" as="geometry" />
        </mxCell>
        <mxCell id="ZdumHRwsYj28944mz9WU-27" value="CNN" style="rounded=0;whiteSpace=wrap;html=1;fillColor=#e1d5e7;strokeColor=#9673a6;" vertex="1" parent="1">
          <mxGeometry x="1040" y="560" width="120" height="60" as="geometry" />
        </mxCell>
        <mxCell id="ZdumHRwsYj28944mz9WU-53" style="edgeStyle=orthogonalEdgeStyle;rounded=0;orthogonalLoop=1;jettySize=auto;html=1;entryX=0;entryY=0.25;entryDx=0;entryDy=0;" edge="1" parent="1" source="ZdumHRwsYj28944mz9WU-29" target="ZdumHRwsYj28944mz9WU-30">
          <mxGeometry relative="1" as="geometry" />
        </mxCell>
        <mxCell id="ZdumHRwsYj28944mz9WU-29" value="Generator&lt;div&gt;&amp;nbsp;Expression Loss&lt;/div&gt;" style="rounded=0;whiteSpace=wrap;html=1;" vertex="1" parent="1">
          <mxGeometry x="1360" y="560" width="120" height="60" as="geometry" />
        </mxCell>
        <mxCell id="ZdumHRwsYj28944mz9WU-56" style="edgeStyle=orthogonalEdgeStyle;rounded=0;orthogonalLoop=1;jettySize=auto;html=1;entryX=0.5;entryY=1;entryDx=0;entryDy=0;" edge="1" parent="1" source="ZdumHRwsYj28944mz9WU-30" target="ZdumHRwsYj28944mz9WU-13">
          <mxGeometry relative="1" as="geometry">
            <Array as="points">
              <mxPoint x="1580" y="880" />
              <mxPoint x="540" y="880" />
            </Array>
          </mxGeometry>
        </mxCell>
        <mxCell id="ZdumHRwsYj28944mz9WU-30" value="Generator&lt;div&gt;Loss Function&lt;/div&gt;" style="rounded=0;whiteSpace=wrap;html=1;" vertex="1" parent="1">
          <mxGeometry x="1520" y="620" width="120" height="60" as="geometry" />
        </mxCell>
        <mxCell id="ZdumHRwsYj28944mz9WU-37" style="edgeStyle=orthogonalEdgeStyle;rounded=0;orthogonalLoop=1;jettySize=auto;html=1;exitX=1;exitY=0.25;exitDx=0;exitDy=0;entryX=0;entryY=0.25;entryDx=0;entryDy=0;" edge="1" parent="1" source="ZdumHRwsYj28944mz9WU-32" target="ZdumHRwsYj28944mz9WU-27">
          <mxGeometry relative="1" as="geometry" />
        </mxCell>
        <mxCell id="ZdumHRwsYj28944mz9WU-46" style="rounded=0;orthogonalLoop=1;jettySize=auto;html=1;entryX=0;entryY=0.25;entryDx=0;entryDy=0;exitX=1;exitY=0.75;exitDx=0;exitDy=0;" edge="1" parent="1" source="ZdumHRwsYj28944mz9WU-32" target="ZdumHRwsYj28944mz9WU-22">
          <mxGeometry relative="1" as="geometry" />
        </mxCell>
        <mxCell id="ZdumHRwsYj28944mz9WU-32" value="Real Full&lt;div&gt;&lt;span style=&quot;background-color: initial;&quot;&gt;Sequence&lt;/span&gt;&lt;/div&gt;" style="rounded=0;whiteSpace=wrap;html=1;" vertex="1" parent="1">
          <mxGeometry x="800" y="560" width="120" height="60" as="geometry" />
        </mxCell>
        <mxCell id="ZdumHRwsYj28944mz9WU-33" style="edgeStyle=orthogonalEdgeStyle;rounded=0;orthogonalLoop=1;jettySize=auto;html=1;exitX=1;exitY=0.25;exitDx=0;exitDy=0;entryX=0;entryY=0.75;entryDx=0;entryDy=0;" edge="1" parent="1" source="ZdumHRwsYj28944mz9WU-34" target="ZdumHRwsYj28944mz9WU-29">
          <mxGeometry relative="1" as="geometry" />
        </mxCell>
        <mxCell id="ZdumHRwsYj28944mz9WU-34" value="Predicted Fake Expression" style="rounded=0;whiteSpace=wrap;html=1;" vertex="1" parent="1">
          <mxGeometry x="1200" y="600" width="120" height="60" as="geometry" />
        </mxCell>
        <mxCell id="ZdumHRwsYj28944mz9WU-35" style="edgeStyle=orthogonalEdgeStyle;rounded=0;orthogonalLoop=1;jettySize=auto;html=1;exitX=1;exitY=0.75;exitDx=0;exitDy=0;entryX=0;entryY=0.25;entryDx=0;entryDy=0;" edge="1" parent="1" source="ZdumHRwsYj28944mz9WU-36" target="ZdumHRwsYj28944mz9WU-29">
          <mxGeometry relative="1" as="geometry" />
        </mxCell>
        <mxCell id="ZdumHRwsYj28944mz9WU-36" value="Predicted Real Expression" style="rounded=0;whiteSpace=wrap;html=1;" vertex="1" parent="1">
          <mxGeometry x="1200" y="520" width="120" height="60" as="geometry" />
        </mxCell>
        <mxCell id="ZdumHRwsYj28944mz9WU-55" style="edgeStyle=orthogonalEdgeStyle;rounded=0;orthogonalLoop=1;jettySize=auto;html=1;entryX=0.5;entryY=1;entryDx=0;entryDy=0;" edge="1" parent="1" source="ZdumHRwsYj28944mz9WU-40" target="ZdumHRwsYj28944mz9WU-22">
          <mxGeometry relative="1" as="geometry">
            <Array as="points">
              <mxPoint x="1260" y="840" />
              <mxPoint x="1100" y="840" />
            </Array>
          </mxGeometry>
        </mxCell>
        <mxCell id="ZdumHRwsYj28944mz9WU-40" value="Discriminator&lt;div&gt;Loss&lt;/div&gt;" style="rounded=0;whiteSpace=wrap;html=1;" vertex="1" parent="1">
          <mxGeometry x="1200" y="760" width="120" height="60" as="geometry" />
        </mxCell>
        <mxCell id="ZdumHRwsYj28944mz9WU-41" style="edgeStyle=orthogonalEdgeStyle;rounded=0;orthogonalLoop=1;jettySize=auto;html=1;exitX=1;exitY=0.75;exitDx=0;exitDy=0;" edge="1" parent="1" source="ZdumHRwsYj28944mz9WU-22" target="ZdumHRwsYj28944mz9WU-40">
          <mxGeometry relative="1" as="geometry">
            <mxPoint x="1170" y="745" as="sourcePoint" />
            <mxPoint x="1210" y="720" as="targetPoint" />
          </mxGeometry>
        </mxCell>
        <mxCell id="ZdumHRwsYj28944mz9WU-48" value="Fake Missing Sequence" style="rounded=0;whiteSpace=wrap;html=1;" vertex="1" parent="1">
          <mxGeometry x="640" y="720" width="120" height="60" as="geometry" />
        </mxCell>
      </root>
    </mxGraphModel>
  </diagram>
</mxfile>
